<!--
  - SPDX-License-Identifier: BUSL-1.1
  - Contributed by Algoritmic Lab Ltd. Copyright (C) 2024.
  - Full license is available at https://github.com/stalwart-algoritmiclab/callisto-ui/tree/dev/LICENSES
  -->
<svg viewBox="0 0 132 30" fill="none" xmlns="http://www.w3.org/2000/svg">
<path d="M32.7195 9.71244C32.7195 6.40384 35.4595 4.10332 39.4401 4.10332C43.2657 4.10332 45.6955 6.2229 45.7989 9.6349H42.4902C42.4127 8.00644 41.2495 7.05005 39.3884 7.05005C37.3464 7.05005 36.0281 8.03229 36.0281 9.60905C36.0281 10.9532 36.7519 11.7028 38.3286 12.0647L41.3012 12.7109C44.5323 13.4088 46.109 15.0631 46.109 17.8806C46.109 21.396 43.3691 23.6706 39.2075 23.6706C35.1751 23.6706 32.5386 21.5252 32.461 18.139H35.7696C35.7955 19.7417 37.0879 20.698 39.2075 20.698C41.4046 20.698 42.8004 19.7417 42.8004 18.1649C42.8004 16.8983 42.1542 16.1487 40.6033 15.8127L37.6049 15.1406C34.3997 14.4427 32.7195 12.6075 32.7195 9.71244ZM52.4625 23.3346H49.309V13.202H46.8534V10.5654H49.309V6.58478H52.4625V10.5654H54.944V13.202H52.4625V23.3346ZM60.1114 23.6706C57.3973 23.6706 55.743 22.0939 55.743 19.69C55.743 17.3377 57.449 15.8644 60.4733 15.6317L64.2989 15.3474V15.0631C64.2989 13.3312 63.265 12.6333 61.6623 12.6333C59.8013 12.6333 58.7673 13.4088 58.7673 14.7529H56.0791C56.0791 11.9871 58.3537 10.1777 61.8174 10.1777C65.2553 10.1777 67.3749 12.0388 67.3749 15.58V23.3346H64.6091L64.3764 21.4477C63.8336 22.7659 62.1018 23.6706 60.1114 23.6706ZM61.1454 21.2926C63.084 21.2926 64.3247 20.1294 64.3247 18.1649V17.4928L61.6623 17.6996C59.6979 17.8806 58.9483 18.5268 58.9483 19.5607C58.9483 20.7239 59.7237 21.2926 61.1454 21.2926ZM73.1352 23.3346H70.0076V4.10332H73.1352V23.3346ZM78.7438 23.3346L74.608 10.5654H77.8908L79.5709 16.0453C79.8552 17.0534 80.1137 18.1649 80.3464 19.3539C80.579 18.1132 80.8116 17.3119 81.2252 16.0453L82.9829 10.5654H86.1881L87.8941 16.0453C88.0492 16.5623 88.5662 18.4751 88.7213 19.3281C88.9281 18.3717 89.3416 16.8466 89.5743 16.0453L91.2803 10.5654H94.6147L90.1946 23.3346H87.2479L85.4902 17.803C84.9732 16.1229 84.6889 14.908 84.5855 14.2618C84.4563 14.8563 84.2236 15.761 83.5774 17.8547L81.8197 23.3346H78.7438ZM99.176 23.6706C96.4619 23.6706 94.8076 22.0939 94.8076 19.69C94.8076 17.3377 96.5136 15.8644 99.5378 15.6317L103.363 15.3474V15.0631C103.363 13.3312 102.329 12.6333 100.727 12.6333C98.8658 12.6333 97.8318 13.4088 97.8318 14.7529H95.1436C95.1436 11.9871 97.4183 10.1777 100.882 10.1777C104.32 10.1777 106.439 12.0388 106.439 15.58V23.3346H103.674L103.441 21.4477C102.898 22.7659 101.166 23.6706 99.176 23.6706ZM100.21 21.2926C102.149 21.2926 103.389 20.1294 103.389 18.1649V17.4928L100.727 17.6996C98.7624 17.8806 98.0128 18.5268 98.0128 19.5607C98.0128 20.7239 98.7882 21.2926 100.21 21.2926ZM117.033 10.5137V13.4346H115.87C113.596 13.4346 112.174 14.6495 112.174 17.131V23.3346H109.02V10.5913H111.993L112.174 12.4524C112.717 11.1858 113.932 10.3328 115.638 10.3328C116.077 10.3328 116.516 10.3845 117.033 10.5137ZM123.498 23.3346H120.345V13.202H117.889V10.5654H120.345V6.58478H123.498V10.5654H125.98V13.202H123.498V23.3346Z" fill="#F2F2F2"/>
<path d="M4.71812 20.077C2.11238 20.077 1.139e-07 17.9646 0 15.3589C-1.139e-07 12.7531 2.11237 10.6408 4.71812 10.6408C7.32387 10.6408 9.43624 12.7531 9.43624 15.3589C9.43624 17.9646 7.32387 20.077 4.71812 20.077Z" fill="#F2F2F2"/>
<path d="M20.4292 20.077C17.8512 20.077 15.7613 17.9646 15.7613 15.3589C15.7613 12.7531 17.8512 10.6408 20.4292 10.6408C23.0073 10.6408 25.0972 12.7531 25.0972 15.3589C25.0972 17.9646 23.0073 20.077 20.4292 20.077Z" fill="#F2F2F2"/>
<path d="M12.7492 27.9079C10.1434 27.9079 8.03106 25.7955 8.03106 23.1897C8.03106 20.584 10.1434 18.4716 12.7492 18.4716C15.3549 18.4716 17.4673 20.584 17.4673 23.1897C17.4673 25.7955 15.3549 27.9079 12.7492 27.9079Z" fill="#F2F2F2"/>
<path d="M12.7492 12.2487C10.1434 12.2487 8.03106 10.1364 8.03106 7.53062C8.03106 4.92488 10.1434 2.8125 12.7492 2.8125C15.3549 2.8125 17.4673 4.92488 17.4673 7.53062C17.4673 10.1364 15.3549 12.2487 12.7492 12.2487Z" fill="#F2F2F2"/>
</svg>
